<?xml version="1.0" encoding="utf-8"?>
<!-- Generator: Adobe Illustrator 25.2.1, SVG Export Plug-In . SVG Version: 6.00 Build 0)  -->
<svg version="1.1" id="CRM_x5F_Email" xmlns="http://www.w3.org/2000/svg" xmlns:xlink="http://www.w3.org/1999/xlink" x="0px"
	 y="0px" viewBox="0 0 130 130" style="enable-background:new 0 0 130 130;" xml:space="preserve">
<style type="text/css">
	.st0{fill:none;}
	.st1{fill:url(#SVGID_1_);}
</style>
<rect class="st0" width="130" height="130"/>
<linearGradient id="SVGID_1_" gradientUnits="userSpaceOnUse" x1="37.6076" y1="82.4299" x2="99.6297" y2="39.0015" gradientTransform="matrix(1 0 0 -1 0 131)">
	<stop  offset="0" style="stop-color:#FF5621"/>
	<stop  offset="1" style="stop-color:#FFBA00"/>
</linearGradient>
<path class="st1" d="M117,63.3l-12-20.8c-0.5-0.9-1.4-1.6-2.5-1.9c-1-0.2-2.1-0.1-3,0.4L64.9,61c-0.9,0.5-1.6,1.4-1.9,2.4
	c-0.3,1.1-0.1,2.1,0.4,3l0,0l12,20.8c1.1,1.9,3.6,2.6,5.5,1.5l34.6-20C117.4,67.6,118.1,65.2,117,63.3z M65.1,65.5
	c-0.3-0.5-0.3-1-0.2-1.5c0.1-0.5,0.5-0.9,0.9-1.2l34.7-20c0.5-0.3,1-0.3,1.5-0.2c1.1,0.3,1.7,1.4,1.4,2.4l-6.8,25.4
	c-0.3,1-0.9,1.9-1.9,2.4c-1,0.5-2,0.7-3,0.4l-25.4-6.8C65.8,66.3,65.4,66,65.1,65.5z M114.5,67L79.9,87c-1,0.6-2.2,0.2-2.7-0.7
	L67,68.7l24.3,6.5c1.6,0.4,3.2,0.2,4.6-0.6c1.3-0.8,2.4-2,2.8-3.6l6.5-24.3l10.2,17.6C115.8,65.2,115.5,66.5,114.5,67z M41.3,68.1
	c-1.1-0.4-2.2-0.7-3.4-0.7v2c0.9,0,1.8,0.2,2.6,0.5L41.3,68.1z M31.4,73.3l-1.8-0.8c-0.5,1.1-0.8,2.2-0.8,3.3l2,0.1
	C30.8,75,31,74.1,31.4,73.3z M24.2,89.1c1,0.2,2.1,0.3,3.1,0.4l0.1-2c-1-0.1-2-0.2-2.9-0.3L24.2,89.1z M35.3,69.9L34.6,68
	c-1.1,0.4-2.1,1-2.9,1.7l1.3,1.5C33.7,70.6,34.4,70.2,35.3,69.9z M45.9,73c-0.4-1.1-0.9-2.1-1.7-3l-1.5,1.3c0.6,0.7,1,1.4,1.3,2.3
	L45.9,73z M44.5,76.9c0,0.7-0.1,1.5-0.3,2.2l1.9,0.6c0.3-0.9,0.4-1.8,0.4-2.7c0-0.2,0-0.4,0-0.6l-2,0.1
	C44.5,76.6,44.5,76.7,44.5,76.9z M18.1,87.4c1,0.4,2,0.7,3,1l0.6-1.9c-0.9-0.3-1.9-0.6-2.8-0.9L18.1,87.4z M12.5,84.7
	c0.9,0.5,1.8,1.1,2.8,1.5l0.9-1.8c-0.9-0.5-1.8-0.9-2.7-1.4L12.5,84.7z M51.2,84.8l0.4,2c1-0.2,2-0.4,3-0.7l-0.5-1.9
	C53.2,84.4,52.2,84.6,51.2,84.8z M57,83.3l0.7,1.9c0.9-0.3,1.9-0.7,2.9-1.1l-0.7-1.9C58.9,82.6,57.9,83,57,83.3z M45.3,85.6l0.1,2
	c1,0,2.1-0.1,3.1-0.3l-0.3-2C47.3,85.4,46.3,85.5,45.3,85.6z M62.7,80.9l0.9,1.8c0.9-0.5,1.8-0.9,2.7-1.4l-1-1.8
	C64.5,80,63.6,80.4,62.7,80.9z M34.3,82.9l-1.2,1.6c0.9,0.7,1.9,1.2,2.9,1.6l0.8-1.8C35.9,84,35,83.5,34.3,82.9z M32.4,81
	c-0.5-0.7-0.9-1.6-1.2-2.4l-1.9,0.6c0.3,1.1,0.8,2.1,1.5,3L32.4,81z M30.4,87.5l0.1,2c1.1-0.1,2.1-0.2,3.2-0.4l-0.4-2
	C32.4,87.3,31.4,87.4,30.4,87.5z M39.3,86.1l-0.5-0.9c-0.8,0.5-1.7,0.9-2.6,1.2l0.7,1.9c0.9-0.3,1.8-0.7,2.6-1.1
	c0.9,0.2,1.9,0.3,2.8,0.4l0.1-2c-1-0.1-1.9-0.2-2.9-0.4L39.3,86.1z M41.1,83.6l1.3,1.5c0.8-0.7,1.6-1.5,2.2-2.5l-1.7-1.1
	C42.4,82.3,41.8,83,41.1,83.6z"/>
</svg>
