<?xml version="1.0" encoding="utf-8"?>
<!-- Generator: Adobe Illustrator 24.3.0, SVG Export Plug-In . SVG Version: 6.00 Build 0)  -->
<svg version="1.1" id="INTEGRATIONS" xmlns="http://www.w3.org/2000/svg" xmlns:xlink="http://www.w3.org/1999/xlink" x="0px"
	 y="0px" viewBox="0 0 184 136" enable-background="new 0 0 184 136" xml:space="preserve">
<linearGradient id="SVGID_1_" gradientUnits="userSpaceOnUse" x1="6.7257" y1="16.7946" x2="151.6453" y2="118.2683">
	<stop  offset="0" style="stop-color:#FF5621"/>
	<stop  offset="0.9993" style="stop-color:#FFBA00"/>
</linearGradient>
<path fill="url(#SVGID_1_)" d="M118.3,136c-6.5,0-11.9-5.3-11.9-11.9c0-3.8,1.9-7.5,5-9.7c0.7-0.5,1.1-1.3,1.1-2.2
	c0-1.4-1.2-2.6-2.6-2.6H49.7c-1.4,0-2.6,1.2-2.6,2.6c0,0.9,0.4,1.7,1.2,2.2c3.1,2.3,5,5.9,5,9.7c0,6.6-5.3,11.9-11.9,11.9
	s-11.9-5.3-11.9-11.9c0-3.8,1.9-7.5,5-9.7c0.7-0.5,1.2-1.3,1.2-2.2c0-1.4-1.2-2.6-2.6-2.6H0V76.3c0-3.6,3-6.6,6.6-6.6
	c2.2,0,4.3,1.1,5.5,3c1.4,2,3.8,3.2,6.3,3.2c4.3,0,7.9-3.5,7.9-7.9c0-4.4-3.5-7.9-7.9-7.9c-2.5,0-4.9,1.2-6.4,3.3
	c-1.2,1.8-3.2,2.8-5.4,2.8c-3.6,0-6.6-3-6.6-6.6V26.4h33.1c1.4,0,2.6-1.2,2.6-2.6h0c0-0.9-0.4-1.7-1.2-2.2c-3.1-2.3-5-5.9-5-9.7
	C29.6,5.3,34.9,0,41.4,0s11.9,5.3,11.9,11.9c0,3.8-1.8,7.4-4.9,9.6c-0.8,0.5-1.2,1.4-1.2,2.2c0,1.4,1.2,2.6,2.6,2.6H110
	c1.4,0,2.6-1.2,2.6-2.6h0c0-0.9-0.4-1.7-1.2-2.2c-3.1-2.3-5-5.9-5-9.7c0-6.6,5.3-11.9,11.9-11.9s11.9,5.3,11.9,11.9
	c0,3.8-1.8,7.4-4.9,9.6c-0.8,0.5-1.2,1.4-1.2,2.2c0,1.4,1.2,2.6,2.6,2.6h31.1v33.2c0,1.4,1.2,2.6,2.6,2.6c0.9,0,1.7-0.4,2.2-1.1
	c2.2-3.2,5.9-5,9.7-5c6.5,0,11.9,5.3,11.9,11.9c0,6.6-5.3,11.9-11.9,11.9c-3.8,0-7.4-1.8-9.6-4.9c-0.5-0.8-1.3-1.2-2.2-1.2
	c-1.4,0-2.6,1.2-2.6,2.6v33.3h-31.1c-1.4,0-2.6,1.2-2.6,2.6c0,0.9,0.4,1.7,1.2,2.2c3.1,2.3,5,5.9,5,9.7
	C130.1,130.7,124.8,136,118.3,136z M80.9,105.6H110c3.6,0,6.6,3,6.6,6.6c0,2.2-1.1,4.2-2.8,5.5c-2.1,1.5-3.3,3.9-3.3,6.4
	c0,4.4,3.5,7.9,7.9,7.9s7.9-3.5,7.9-7.9c0-2.5-1.2-4.9-3.3-6.4c-1.8-1.2-2.9-3.2-2.9-5.5c0-3.6,3-6.6,6.6-6.6h27.1V76.3
	c0-3.6,3-6.6,6.6-6.6c2.2,0,4.3,1.1,5.5,3c1.4,2,3.8,3.2,6.3,3.2c4.3,0,7.9-3.5,7.9-7.9c0-4.4-3.5-7.9-7.9-7.9
	c-2.5,0-4.9,1.2-6.4,3.3c-1.2,1.8-3.3,2.8-5.4,2.8c-3.6,0-6.6-3-6.6-6.6V30.4h-27.1c-3.6,0-6.6-3-6.6-6.6c0-2.2,1.1-4.3,2.9-5.5
	c2-1.4,3.2-3.8,3.2-6.4c0-4.4-3.5-7.9-7.9-7.9s-7.9,3.5-7.9,7.9c0,2.5,1.2,4.9,3.3,6.4c1.8,1.2,2.9,3.3,2.9,5.5h0
	c0,3.7-3,6.6-6.6,6.6H80.9v29.2c0,1.4,1.2,2.6,2.6,2.6c0.9,0,1.7-0.4,2.2-1.1c2.2-3.2,5.9-5,9.7-5c6.5,0,11.9,5.3,11.9,11.9
	c0,6.6-5.3,11.9-11.9,11.9c-3.8,0-7.4-1.8-9.6-4.9c-0.5-0.8-1.3-1.2-2.2-1.2c-1.4,0-2.6,1.2-2.6,2.6V105.6z M4,105.6h29.1
	c3.6,0,6.6,3,6.6,6.6c0,2.2-1.1,4.2-2.8,5.5c-2.1,1.5-3.3,3.9-3.3,6.4c0,4.4,3.5,7.9,7.9,7.9s7.9-3.5,7.9-7.9c0-2.5-1.2-4.9-3.3-6.4
	c-1.8-1.2-2.9-3.3-2.9-5.5c0-3.6,3-6.6,6.6-6.6h27.1V76.3c0-3.6,3-6.6,6.6-6.6c2.2,0,4.3,1.1,5.5,3c1.4,2,3.8,3.2,6.3,3.2
	c4.3,0,7.9-3.5,7.9-7.9c0-4.4-3.5-7.9-7.9-7.9c-2.5,0-4.9,1.2-6.4,3.3c-1.2,1.8-3.3,2.8-5.4,2.8c-3.6,0-6.6-3-6.6-6.6V30.4H49.7
	c-3.6,0-6.6-3-6.6-6.6c0-2.2,1.1-4.3,2.9-5.5c2-1.4,3.2-3.8,3.2-6.4c0-4.4-3.5-7.9-7.9-7.9c-4.3,0-7.9,3.5-7.9,7.9
	c0,2.5,1.2,4.9,3.3,6.4c1.8,1.2,2.9,3.3,2.9,5.5h0c0,3.7-3,6.6-6.6,6.6H4v29.2c0,1.4,1.2,2.6,2.6,2.6c0.9,0,1.7-0.4,2.1-1.1
	c2.2-3.2,5.9-5,9.7-5c6.5,0,11.9,5.3,11.9,11.9c0,6.6-5.3,11.9-11.9,11.9c-3.8,0-7.4-1.8-9.6-4.9c-0.5-0.8-1.3-1.2-2.2-1.2
	c-1.4,0-2.6,1.2-2.6,2.6V105.6z"/>
</svg>
