<?xml version="1.0" encoding="utf-8"?>
<!-- Generator: Adobe Illustrator 25.2.1, SVG Export Plug-In . SVG Version: 6.00 Build 0)  -->
<svg version="1.1" id="CRM_x5F_Lead_Routing" xmlns="http://www.w3.org/2000/svg" xmlns:xlink="http://www.w3.org/1999/xlink"
	 x="0px" y="0px" viewBox="0 0 130 130" style="enable-background:new 0 0 130 130;" xml:space="preserve">
<style type="text/css">
	.st0{fill:none;}
	.st1{fill:url(#SVGID_1_);}
</style>
<rect class="st0" width="130" height="130"/>
<linearGradient id="SVGID_1_" gradientUnits="userSpaceOnUse" x1="35.7822" y1="30.7481" x2="120.2976" y2="89.9265">
	<stop  offset="0" style="stop-color:#FF5621"/>
	<stop  offset="1" style="stop-color:#FFBA00"/>
</linearGradient>
<path class="st1" d="M101.1,72c-3.6,0-6.5,2.9-6.5,6.5s2.9,6.5,6.5,6.5s6.5-2.9,6.5-6.5S104.7,72,101.1,72z M101.1,82.9
	c-2.5,0-4.5-2-4.5-4.5c0-2.5,2-4.5,4.5-4.5s4.5,2,4.5,4.5C105.6,80.9,103.6,82.9,101.1,82.9z M105.4,87.1h-8.7
	c-4.8,0-8.7,3.9-8.7,8.6v2.7c0,0.9,0.7,1.6,1.6,1.6h22.8c0.9,0,1.6-0.7,1.6-1.6v-2.7C114.1,91,110.2,87.1,105.4,87.1z M112.2,98
	H90.1v-2.3c0-3.7,3-6.7,6.7-6.7h8.7c3.7,0,6.7,3,6.7,6.7V98z M67.6,49.5l2.6-1.8l1.1,1.6l-2.6,1.8L67.6,49.5z M72.9,45.8l2.6-1.8
	l1.1,1.6L74,47.5L72.9,45.8z M62.3,53.1l2.6-1.8l1.1,1.6l-2.6,1.8L62.3,53.1z M57,56.8l2.6-1.8l1.1,1.6l-2.6,1.8L57,56.8z
	 M83.5,38.6l2.6-1.8l1.1,1.6l-2.6,1.8L83.5,38.6z M78.2,42.2l2.6-1.8L82,42l-2.6,1.8L78.2,42.2z M85.7,30.9l6.8,9.9L97.7,30
	L85.7,30.9z M86.1,83L81,72.2l-2.8,4.1L53.1,59H16v2h36.4L77,77.9L74.2,82L86.1,83z"/>
</svg>
