<?xml version="1.0" encoding="utf-8"?>
<!-- Generator: Adobe Illustrator 24.3.0, SVG Export Plug-In . SVG Version: 6.00 Build 0)  -->
<svg version="1.1" id="Layer_1" xmlns="http://www.w3.org/2000/svg" xmlns:xlink="http://www.w3.org/1999/xlink" x="0px" y="0px"
	 viewBox="0 0 184 126" enable-background="new 0 0 184 126" xml:space="preserve">
<linearGradient id="SVGID_1_" gradientUnits="userSpaceOnUse" x1="-4.5166" y1="158.6502" x2="-3.3255" y2="157.4376" gradientTransform="matrix(92.852 0 0 -63.8691 437.0272 10142.6426)">
	<stop  offset="0" style="stop-color:#FF5621"/>
	<stop  offset="1" style="stop-color:#FFBA00"/>
</linearGradient>
<path fill-rule="evenodd" clip-rule="evenodd" fill="url(#SVGID_1_)" d="M182,72.2c-0.1,0-0.2,0-0.3,0l-36.5-6.4
	c-1.1-0.2-1.8-1.2-1.6-2.3c0.2-1.1,1.2-1.8,2.3-1.6l36.5,6.4c1.1,0.2,1.8,1.2,1.6,2.3C183.8,71.5,183,72.2,182,72.2z M179.4,34.6
	l-34.8,12.7c-0.2,0.1-0.4,0.1-0.7,0.1c-0.8,0-1.6-0.5-1.9-1.3c-0.4-1,0.2-2.2,1.2-2.5l34.8-12.7c1-0.4,2.2,0.2,2.5,1.2
	C181,33.1,180.5,34.3,179.4,34.6z M134.9,31.7c-0.4,0.5-0.9,0.7-1.5,0.7c-0.4,0-0.9-0.2-1.3-0.5c-0.8-0.7-0.9-2-0.2-2.8l23.9-28.4
	c0.7-0.8,1.9-0.9,2.8-0.2c0.8,0.7,0.9,2,0.2,2.8L134.9,31.7z M133.2,92.6c-0.6,0.2-1.2,0.3-1.7,0.3c-1.5,0-2.9-0.7-3.8-1.8L85.3,100
	l2.5,11.7c0.4,1.7,0,3.5-0.9,5c-1,1.5-2.4,2.5-4.2,2.9l-30.2,6.4c-0.5,0.1-0.9,0.1-1.4,0.1c-3.1,0-5.8-2.1-6.5-5.3l-2.5-11.7
	l-18.4,3.9c-0.1,0.6-0.2,1.1-0.4,1.6c-0.6,1.2-1.6,2.2-2.8,2.6c-0.6,0.2-1.2,0.3-1.7,0.3c-2.1,0-4-1.3-4.8-3.3L0.3,76.4
	c-0.5-1.3-0.4-2.6,0.2-3.9C1,71.3,2,70.4,3.3,69.9c1.9-0.7,3.9-0.2,5.3,1.1l93.5-50c0-0.7,0.1-1.4,0.5-2.1c0.5-1.1,1.3-1.9,2.4-2.4
	l0,0l0.4-0.1c2.6-0.9,5.5,0.4,6.5,3l24.3,66.8C137.1,88.7,135.8,91.6,133.2,92.6z M48.5,119.9c0.3,1.4,1.7,2.3,3.2,2.1l30.2-6.4
	c0.7-0.1,1.3-0.6,1.7-1.2c0.4-0.6,0.5-1.3,0.4-2l-2.5-11.7l-35.4,7.5L48.5,119.9z M6.1,74.3L6.1,74.3c-0.2-0.6-0.9-0.9-1.4-0.7
	c-0.3,0.1-0.5,0.3-0.6,0.6c-0.1,0.3-0.1,0.6,0,0.8l13.7,37.8c0.2,0.6,0.9,0.8,1.4,0.6c0.3-0.1,0.5-0.3,0.6-0.6
	c0.1-0.3,0.1-0.6,0-0.8L6.1,74.3z M103.2,24.9L10.4,74.6L23,109.1l102.9-21.7L103.2,24.9z M132.5,87.4l-24.3-66.8
	c-0.2-0.6-0.8-0.9-1.4-0.7c-0.3,0.1-0.5,0.3-0.6,0.6c-0.1,0.3-0.1,0.6,0,0.8l24.3,66.8c0.2,0.6,0.9,0.9,1.4,0.7
	C132.4,88.7,132.7,88,132.5,87.4z"/>
</svg>
