<?xml version="1.0" encoding="utf-8"?>
<!-- Generator: Adobe Illustrator 24.3.0, SVG Export Plug-In . SVG Version: 6.00 Build 0)  -->
<svg version="1.1" id="PROJECTS" xmlns="http://www.w3.org/2000/svg" xmlns:xlink="http://www.w3.org/1999/xlink" x="0px" y="0px"
	 viewBox="0 0 120 126" enable-background="new 0 0 120 126" xml:space="preserve">
<linearGradient id="SVGID_1_" gradientUnits="userSpaceOnUse" x1="-3.6893" y1="158.4949" x2="-2.0411" y2="157.389" gradientTransform="matrix(60.3605 0 0 -62.99 209.8295 9999.3311)">
	<stop  offset="0.35" style="stop-color:#FF5621"/>
	<stop  offset="1" style="stop-color:#FFBA00"/>
</linearGradient>
<path fill-rule="evenodd" clip-rule="evenodd" fill="url(#SVGID_1_)" d="M108.4,28.1l10-9.8c2.2,4.8,2.2,10.3,0,15.1
	c-3.1,6.8-9.9,10.8-16.9,10.8c-2.6,0-5.2-0.5-7.6-1.6L72.1,64l-2.8-2.8L91,39.7l1.9-1.9l2.5,1.1c1.9,0.9,3.9,1.3,6,1.3
	c5.7,0,10.9-3.3,13.3-8.4c0.8-1.7,1.2-3.6,1.3-5.4l-4.8,4.7l-1.2,1.2H95.1V17.3l1.2-1.2l4.6-4.6C95.4,11.7,90.4,15,88.2,20
	c-1.7,3.7-1.7,8,0,11.7l1.2,2.6l-2,2L65.7,57.7l-2.9-2.9l21.7-21.4c-2.2-4.8-2.2-10.3,0-15.1c3.1-6.8,9.9-10.8,16.9-10.8
	c2.6,0,5.2,0.5,7.6,1.6l-10,9.8v9.2H108.4z M49.9,26.5C49.9,26.5,49.9,26.6,49.9,26.5c-0.4,0.4-0.9,0.6-1.5,0.6
	c-0.6,0-1.1-0.2-1.5-0.6c-1.3-1.3-2.9-1.9-4.6-1.9c-1.6,0-3.2,0.6-4.4,1.8c-2.5,2.4-2.4,6.4,0.1,8.9l4.6,4.6l0,0l1.4,1.4l0,0
	l69.3,68.4c2.7,2.7,2.7,7,0,9.7c-1.4,1.3-3.1,2-4.9,2s-3.6-0.7-4.9-2l-67.8-67l0,0L34.2,51l-5.7-5.6c-0.7-0.7-1.4-0.9-2.3-0.9
	c-3,0-6.8,3.3-9.1,5.5c-4.6,4.5-7,10.8-6.7,17.2c0,0.7-0.3,1.3-0.8,1.8c-0.4,0.3-0.8,0.4-1.2,0.4c-0.7,0-1.3-0.3-1.7-0.9
	C-2.7,56.7-2.1,40.1,8,29.2c-0.1-0.1,6-6.1,9.5-9.5c0.8-0.8,1.9-1.2,2.9-1.2c0.5,0,1.1,0.1,1.6,0.3c0.8,0.3,1.6,0.5,2.5,0.5
	c1.7,0,3.3-0.6,4.5-1.9c2.4-2.5,2.3-6.4-0.2-8.9c0,0,0,0,0,0c-0.8-0.8-0.8-2.2,0-3l4.5-4.4c0,0,0,0,0,0C34,0.4,35,0,36.1,0
	c1.1,0,2.2,0.4,3.1,1.3l15.1,14.9c0,0,0,0,0,0c1.7,1.7,1.7,4.3,0,5.9L49.9,26.5z M106.2,116.5c0.6,0.6,1.3,0.9,2.1,0.9
	c0.8,0,1.6-0.3,2.1-0.9c0.5-0.5,0.8-1.2,0.8-2c0-0.7-0.3-1.5-0.8-2l-67.9-67l-4.1,4.1L106.2,116.5z M51.5,19.1l-15.2-15
	C36.3,4,36.2,4,36.1,4c-0.1,0-0.1,0-0.1,0l-0.3,0.3l0,0l-2.9,2.9c1.2,1.7,1.9,3.7,1.9,5.8c0,2.7-1,5.3-2.9,7.3
	c-1.9,2-4.6,3.1-7.3,3.1c-1.4,0-2.7-0.3-4-0.8c0,0,0,0,0,0c0,0,0,0-0.1,0c-0.1,0-0.1,0-0.1,0c-5.2,5.1-7.4,7.4-8.4,8.4l-0.9,1
	C3.4,40,2,51.7,6.8,61.3c1-5.4,3.5-10.3,7.5-14.2c4.5-4.4,8.5-6.7,11.9-6.7c2,0,3.7,0.7,5.1,2.1l4.3,4.3l4.1-4.1l-4.6-4.5
	c-2-2-3.1-4.6-3.1-7.4c0-2.7,1.1-5.3,3-7.2c1.9-1.9,4.5-3,7.2-3c2.2,0,4.2,0.7,6,1.9l3.3-3.2C51.6,19.2,51.6,19.1,51.5,19.1z
	 M18.6,89.3c2.6,0,5.2,0.5,7.6,1.6L48,69.5l2.8,2.8L48,75.1L29,93.8l-1.9,1.9l-2.5-1.1c-1.9-0.9-3.9-1.3-6-1.3
	c-5.7,0-10.9,3.3-13.3,8.4c-0.8,1.7-1.2,3.6-1.3,5.4l4.8-4.7l1.2-1.2h14.9v14.9l-1.2,1.2l-4.6,4.6c5.5-0.2,10.5-3.5,12.8-8.4
	c1.7-3.7,1.7-8,0-11.7l-1.2-2.6l2-2l21.7-21.5l2.9,2.9l-21.8,21.5c2.2,4.8,2.2,10.3,0,15.1C32.4,122,25.6,126,18.6,126
	c-2.6,0-5.2-0.5-7.6-1.6l9.9-9.8v-9.2h-9.3l-10,9.8c-2.2-4.8-2.2-10.3,0-15.1C4.7,93.3,11.5,89.3,18.6,89.3z"/>
</svg>
