<?xml version="1.0" encoding="utf-8"?>
<!-- Generator: Adobe Illustrator 24.3.0, SVG Export Plug-In . SVG Version: 6.00 Build 0)  -->
<svg version="1.1" id="SALES" xmlns="http://www.w3.org/2000/svg" xmlns:xlink="http://www.w3.org/1999/xlink" x="0px" y="0px"
	 viewBox="0 0 136 120" enable-background="new 0 0 136 120" xml:space="preserve">
<linearGradient id="SVGID_1_" gradientUnits="userSpaceOnUse" x1="24.3011" y1="29.4017" x2="139.8897" y2="110.3377">
	<stop  offset="0" style="stop-color:#FF5621"/>
	<stop  offset="1" style="stop-color:#FFBA00"/>
</linearGradient>
<path fill="url(#SVGID_1_)" d="M26,64c1.1,0,2,0.9,2,2v48c0,1.1-0.9,2-2,2H6c-1.1,0-2-0.9-2-2V66c0-1.1,0.9-2,2-2H26 M26,60H6
	c-3.3,0-6,2.7-6,6v48c0,3.3,2.7,6,6,6h20c3.3,0,6-2.7,6-6V66C32,62.7,29.3,60,26,60L26,60z M78,34c1.1,0,2,0.9,2,2v78
	c0,1.1-0.9,2-2,2H58c-1.1,0-2-0.9-2-2V36c0-1.1,0.9-2,2-2H78 M78,30H58c-3.3,0-6,2.7-6,6v78c0,3.3,2.7,6,6,6h20c3.3,0,6-2.7,6-6V36
	C84,32.7,81.3,30,78,30L78,30z M130,4c1.1,0,2,0.9,2,2v108c0,1.1-0.9,2-2,2h-20c-1.1,0-2-0.9-2-2V6c0-1.1,0.9-2,2-2H130 M130,0h-20
	c-3.3,0-6,2.7-6,6v108c0,3.3,2.7,6,6,6h20c3.3,0,6-2.7,6-6V6C136,2.7,133.3,0,130,0L130,0z"/>
</svg>
