<?xml version="1.0"?>
<svg xmlns:rdf="http://www.w3.org/1999/02/22-rdf-syntax-ns#" xmlns="http://www.w3.org/2000/svg" xmlns:cc="http://creativecommons.org/ns#" xmlns:dc="http://purl.org/dc/elements/1.1/" xmlns:svg="http://www.w3.org/2000/svg" id="svg14755" viewBox="0 0 202.78 336.09" version="1.1">
  <defs id="defs14757">
    <clipPath id="clipPath9385" clipPathUnits="userSpaceOnUse">
      <path id="path9387" d="m728.65 494.4h11.552v-10.832h-11.552v10.832z"/>
    </clipPath>
    <clipPath id="clipPath9361" clipPathUnits="userSpaceOnUse">
      <path id="path9363" d="m712.26 545.33h12.094v-1.999h-12.094v1.999z"/>
    </clipPath>
    <clipPath id="clipPath9345" clipPathUnits="userSpaceOnUse">
      <path id="path9347" d="m727.5 562.48h4.604v-12.135h-4.604v12.135z"/>
    </clipPath>
    <clipPath id="clipPath9321" clipPathUnits="userSpaceOnUse">
      <path id="path9323" d="m625.36 549.18h22.79v-27.585h-22.79v27.585z"/>
    </clipPath>
    <clipPath id="clipPath9305" clipPathUnits="userSpaceOnUse">
      <path id="path9307" d="m623.56 511.4h22.788v-27.585h-22.788v27.585z"/>
    </clipPath>
    <clipPath id="clipPath9281" clipPathUnits="userSpaceOnUse">
      <path id="path9283" d="m719.04 498.16h18.476v-2.943h-18.476v2.943z"/>
    </clipPath>
    <clipPath id="clipPath9265" clipPathUnits="userSpaceOnUse">
      <path id="path9267" d="m755.06 541.74h79.167v-16.978h-79.167v16.978z"/>
    </clipPath>
    <clipPath id="clipPath9249" clipPathUnits="userSpaceOnUse">
      <path id="path9251" d="m754.42 523.35h79.732v-11.069h-79.732v11.069z"/>
    </clipPath>
    <clipPath id="clipPath9233" clipPathUnits="userSpaceOnUse">
      <path id="path9235" d="m754.42 505.28h76.329v-8.582h-76.329v8.582z"/>
    </clipPath>
    <clipPath id="clipPath9217" clipPathUnits="userSpaceOnUse">
      <path id="path9219" d="m745.46 533.23h4.47v-5.145h-4.47v5.145z"/>
    </clipPath>
    <clipPath id="clipPath9201" clipPathUnits="userSpaceOnUse">
      <path id="path9203" d="m745.67 524.69h5.302v-5.874h-5.302v5.874z"/>
    </clipPath>
    <clipPath id="clipPath9185" clipPathUnits="userSpaceOnUse">
      <path id="path9187" d="m746.86 517.5h4.922v-4.874h-4.922v4.874z"/>
    </clipPath>
    <clipPath id="clipPath9169" clipPathUnits="userSpaceOnUse">
      <path id="path9171" d="m747.42 511.04h4.151v-5.132h-4.151v5.132z"/>
    </clipPath>
    <clipPath id="clipPath9153" clipPathUnits="userSpaceOnUse">
      <path id="path9155" d="m748.06 503.99h4.289v-4.545h-4.289v4.545z"/>
    </clipPath>
    <clipPath id="clipPath9137" clipPathUnits="userSpaceOnUse">
      <path id="path9139" d="m719.87 528.38h4.774v-28.874h-4.774v28.874z"/>
    </clipPath>
    <clipPath id="clipPath9121" clipPathUnits="userSpaceOnUse">
      <path id="path9123" d="m667.08 518.61h2.77v-4.955h-2.77v4.955z"/>
    </clipPath>
    <clipPath id="clipPath9105" clipPathUnits="userSpaceOnUse">
      <path id="path9107" d="m631.87 530.88h9.827v-2.229h-9.827v2.229z"/>
    </clipPath>
    <clipPath id="clipPath9089" clipPathUnits="userSpaceOnUse">
      <path id="path9091" d="m630.93 502.46h9.828v-2.229h-9.828v2.229z"/>
    </clipPath>
    <clipPath id="clipPath9073" clipPathUnits="userSpaceOnUse">
      <path id="path9075" d="m602.94 497.8h13.854v-6.374h-13.854v6.374z"/>
    </clipPath>
    <clipPath id="clipPath9057" clipPathUnits="userSpaceOnUse">
      <path id="path9059" d="m643.99 517.34h3.818v-2.357h-3.818v2.357z"/>
    </clipPath>
    <clipPath id="clipPath9041" clipPathUnits="userSpaceOnUse">
      <path id="path9043" d="m588.14 565.83h35.26v-56.445h-35.26v56.445z"/>
    </clipPath>
    <clipPath id="clipPath9025" clipPathUnits="userSpaceOnUse">
      <path id="path9027" d="m589.9 558.39h49.061v-49.004h-49.061v49.004z"/>
    </clipPath>
    <clipPath id="clipPath9009" clipPathUnits="userSpaceOnUse">
      <path id="path9011" d="m589.9 509.38h38.021v-26.764h-38.021v26.764z"/>
    </clipPath>
    <clipPath id="clipPath8989" clipPathUnits="userSpaceOnUse">
      <path id="path8991" d="m603.93 521.26h23.035v-12.924h-23.035v12.924z"/>
    </clipPath>
    <clipPath id="clipPath8973" clipPathUnits="userSpaceOnUse">
      <path id="path8975" d="m670.28 541.99h9.711v-19.077h-9.711v19.077z"/>
    </clipPath>
    <clipPath id="clipPath8941" clipPathUnits="userSpaceOnUse">
      <path id="path8943" d="m647.58 540.05h6.185v-11.132h-6.185v11.132z"/>
    </clipPath>
    <clipPath id="clipPath8925" clipPathUnits="userSpaceOnUse">
      <path id="path8927" d="m647.58 503.99h6.185v-11.133h-6.185v11.133z"/>
    </clipPath>
    <clipPath id="clipPath8901" clipPathUnits="userSpaceOnUse">
      <path id="path8903" d="m580.31 575.03h43.954v-25.151h-43.954v25.151z"/>
    </clipPath>
  </defs>
  <g id="layer1" transform="translate(-634.69 -477.44)">
    <g id="g8865" transform="matrix(0 1.25 1.25 0 792.19 555.16)">
      <path id="path8867" d="m0 0c27.5 0 49.792-15.288 49.792-34.146 0-18.859-22.292-34.147-49.792-34.147-27.499 0-49.79 15.288-49.79 34.147 0 18.858 22.291 34.146 49.79 34.146" fill="#f9dec5"/>
    </g>
    <g id="g8869" transform="matrix(0 1.25 1.25 0 727.35 564.3)">
      <path id="path8871" d="m0 0c4.099 0 7.421-1.31 7.421-2.924 0-1.615-3.322-2.924-7.421-2.924s-7.421 1.309-7.421 2.924c0 1.614 3.322 2.924 7.421 2.924"/>
    </g>
    <g id="g8873" transform="matrix(0 1.25 1.25 0 762.63 566.3)">
      <path id="path8875" d="m0 0c4.099 0 7.421-1.309 7.421-2.923 0-1.615-3.322-2.924-7.421-2.924-4.1 0-7.422 1.309-7.422 2.924 0 1.614 3.322 2.923 7.422 2.923"/>
    </g>
    <g id="g8877" transform="matrix(0 1.25 1.25 0 728.1 550.15)">
      <path id="path8879" d="m0 0s-4.798-3.448-3.448-14.842" stroke="#000" fill="none"/>
    </g>
    <g id="g8881" transform="matrix(0 1.25 1.25 0 751.52 551.46)">
      <path id="path8883" d="m0 0s-5.697 4.947-4.798 14.993" stroke="#000" fill="none"/>
    </g>
    <g id="g8885" transform="matrix(0 1.25 1.25 0 759.18 561.6)">
      <path id="path8887" d="m0 0c1.009-0.244 1.701-0.956 1.548-1.592-0.152-0.635-1.093-0.952-2.103-0.708-1.007 0.244-1.699 0.954-1.546 1.59s1.093 0.952 2.101 0.71" fill="#fff"/>
    </g>
    <g id="g8889" transform="matrix(0 1.25 1.25 0 724.54 559.33)">
      <path id="path8891" d="m0 0c1.009-0.244 1.701-0.955 1.548-1.59-0.152-0.636-1.093-0.953-2.103-0.709-1.007 0.243-1.699 0.955-1.547 1.589 0.154 0.636 1.093 0.953 2.102 0.71" fill="#fff"/>
    </g>
    <g id="g8893" transform="matrix(0 1.25 1.25 0 785.34 486.55)">
      <path id="path8895" d="m0 0s1.405 48.657 67.97 40.859-16.223-0.031-26.986-10.794 15.292 2.102 31.484-8.394c0 0-14.772 1.686-21.928-1.557 0 0-28.26-30.991-50.54-20.114" fill="#42210b"/>
    </g>
    <g id="g8897" transform="matrix(0 1.25 1.25 0 95.396 -230.6)">
      <g id="g8905">
        <g id="g8907" opacity=".5" clip-path="url(#clipPath8901)">
          <g id="g8909" transform="translate(580.31 549.92)">
            <path id="path8911" d="m0 0s6.248 35.384 43.954 22.154-39.695-23.217-43.954-22.154"/>
          </g>
        </g>
      </g>
    </g>
    <g id="g8913" transform="matrix(0 1.25 1.25 0 803.59 576.17)">
      <path id="path8915" d="m0 0c6.596-4.133 10.266-10.157 8.2-13.454-2.068-3.296-9.089-2.622-15.684 1.513-6.597 4.133-10.267 10.158-8.2 13.456 2.067 3.296 9.087 2.619 15.684-1.515" fill="#f9dec5"/>
    </g>
    <g id="g8917" transform="matrix(0 1.25 1.25 0 730.16 591.38)">
      <path id="path8919" d="m0 0s6.746 7.196-1.125 19.79 18.666-11.019 1.125-19.79" fill="#ed1c24"/>
    </g>
    <g id="g8921" transform="matrix(0 1.25 1.25 0 95.396 -230.6)">
      <g id="g8929">
        <g id="g8931" opacity=".5" clip-path="url(#clipPath8925)">
          <g id="g8933" transform="translate(650.67 503.99)">
            <path id="path8935" d="m0 0c1.707 0 3.092-2.492 3.092-5.566 0-3.075-1.385-5.567-3.092-5.567-1.708 0-3.093 2.492-3.093 5.567 0 3.074 1.385 5.566 3.093 5.566" fill="#d4145a"/>
          </g>
        </g>
      </g>
    </g>
    <g id="g8937" transform="matrix(0 1.25 1.25 0 95.396 -230.6)">
      <g id="g8945">
        <g id="g8947" opacity=".5" clip-path="url(#clipPath8941)">
          <g id="g8949" transform="translate(650.67 540.05)">
            <path id="path8951" d="m0 0c1.707 0 3.092-2.493 3.092-5.565 0-3.076-1.385-5.567-3.092-5.567-1.708 0-3.093 2.491-3.093 5.567 0 3.072 1.385 5.565 3.093 5.565" fill="#d4145a"/>
          </g>
        </g>
      </g>
    </g>
    <g id="g8953" transform="matrix(0 1.25 1.25 0 784.65 668.77)">
      <path id="path8955" d="m0 0s18.516 3.179 24.171-12.256c5.656-15.435 7.755-29.422 10.903-33.101h6.747s-8.902 24.32-8.902 40.02 2.067 17.481-33.929 16.746" fill="#f9dec5"/>
    </g>
    <g id="g8957" transform="matrix(0 1.25 1.25 0 772.89 605.59)">
      <path id="path8959" d="m0 0h11.501s7.674 13.269 14.6 21.589c6.925 8.32 34.444 3.148 34.444 3.148-3.559-4.272 0.748-21.589 0.748-21.589h-7.488c13.103-15.741 25.832-8.995 25.832-8.995 32.57 30.584 81.988 19.79 81.988 19.79 11.98-25.186-2.621-69.263-2.621-69.263-12.729 8.095-90.6 11.244-90.6 11.244-16.095 0-24.707-7.196-35.938-2.699-11.232 4.498-19.843 28.785-19.843 28.785l-4.883-1.087s-2.328 12.737-7.741 19.077" fill="#f9dec5"/>
    </g>
    <g id="g8961" transform="matrix(0 1.25 1.25 0 751.68 594.35)">
      <path id="path8963" d="m0 0c-1.854 1.593-3.5 2.57-3.5 2.57 7.871-12.593 1.125-19.79 1.125-19.79 1.163 0.582 2.155 1.174 3.017 1.772 2.557 5.49 0.859 11.765-0.642 15.448" fill="#fff"/>
    </g>
    <g id="g8965" transform="matrix(0 1.25 1.25 0 773.55 620.35)">
      <path id="path8967" d="m0 0c0.995-4.061 1.853-10.422 0.995-19.015 1.278-3.429 9.365-24.167 19.661-28.29 11.232-4.497 19.843 2.7 35.939 2.7 0 0 77.871-3.149 90.599-11.245 0 0 14.602 44.078 2.621 69.264 0 0-49.418 10.794-81.988-19.79 0 0-12.728-6.746-25.832 8.995h7.488s-4.306 17.317-0.748 21.589-27.518 5.172-34.444-3.148c-6.112-7.351-12.805-18.544-14.286-21.06" fill="#fbb03b"/>
    </g>
    <g id="g8969" transform="matrix(0 1.25 1.25 0 95.396 -230.6)">
      <g id="g8977">
        <g id="g8979" opacity=".2" clip-path="url(#clipPath8973)">
          <g id="g8981" transform="translate(670.28 541.99)">
            <path id="path8983" d="m0 0c5.726-6.34 8.188-19.077 8.188-19.077l1.523 0.321c-0.784 7.14-3.107 14.076-4.978 18.756h-4.733z"/>
          </g>
        </g>
      </g>
    </g>
    <g id="g8985" transform="matrix(0 1.25 1.25 0 95.396 -230.6)">
      <g id="g8993">
        <g id="g8995" opacity=".2" clip-path="url(#clipPath8989)">
          <g id="g8997" transform="translate(606.99 508.45)">
            <path id="path8999" d="m0 0s9.413-0.807 19.972 12.264-11.098-8.875-17.17-10.044 7.066 5.647 9.606 10.591c0 0-23.736-14.331-12.408-12.811" fill="#f15a24"/>
          </g>
        </g>
      </g>
    </g>
    <g id="g9001" transform="matrix(0 1.25 1.25 0 701.86 526.35)">
      <path id="path9003" d="m0 0c-0.229 0.554 20.241-8.244 27.736 1.051 0 0-24.59-0.002-33.433 13.792 0 0 19.041-3.149 27.735 19.04 0 0-9.967-11.392-19.635-11.971-0.251-0.015-0.502-0.022-0.754-0.022-9.894 0 22.638 15.891 28.036 37.48 0 0-15.294-16.941-25.488-17.541 0 0 22.197 18.295 28.792 29.69 0 0 2.243 5.841 23.532 0.745 0 0-16.492 6.895-26.086 5.096 0 0 11.094 1.799 17.391 1.799 0 0-88.753 39.279-74.66-53.671 0 0-7.798 3.6-12.295 14.094 0 0 5.387-22.436 20.44-24.925 0 0 3.247-21.552 26.035-25.149 0 0-3.598 1.496-7.346 10.492" fill="#42210b"/>
    </g>
    <g id="g9005" transform="matrix(0 1.25 1.25 0 95.396 -230.6)">
      <g id="g9013">
        <g id="g9015" opacity=".3" clip-path="url(#clipPath9009)">
          <g id="g9017" transform="translate(589.9 509.38)">
            <path id="path9019" d="m0 0s4.529-28.602 38.021-26.67-29.701-1.665-38.021 26.67"/>
          </g>
        </g>
      </g>
    </g>
    <g id="g9021" transform="matrix(0 1.25 1.25 0 95.396 -230.6)">
      <g id="g9029">
        <g id="g9031" opacity=".3" clip-path="url(#clipPath9025)">
          <g id="g9033" transform="translate(589.9 509.38)">
            <path id="path9035" d="m0 0s4.571 57.734 49.061 47.87-38.492 9.925-49.061-47.87"/>
          </g>
        </g>
      </g>
    </g>
    <g id="g9037" transform="matrix(0 1.25 1.25 0 95.396 -230.6)">
      <g id="g9045">
        <g id="g9047" opacity=".3" clip-path="url(#clipPath9041)">
          <g id="g9049" transform="translate(589.9 509.38)">
            <path id="path9051" d="m0 0s-8.546 45.876 33.508 56.445-44.528-6.297-33.508-56.445"/>
          </g>
        </g>
      </g>
    </g>
    <g id="g9053" transform="matrix(0 1.25 1.25 0 95.396 -230.6)">
      <g id="g9061">
        <g id="g9063" opacity=".2" clip-path="url(#clipPath9057)">
          <g id="g9065" transform="translate(644.24 516.99)">
            <path id="path9067" d="m0 0c0.396-0.699 0.96-2.158 2.104-1.986 0.873 0.131 1.484 1.632 1.466 2.34-0.679 0.054-1.035-0.543-1.713-0.601-0.747-0.065-1.442 0.693-2.104 0.124" fill="#f15a24"/>
          </g>
        </g>
      </g>
    </g>
    <g id="g9069" transform="matrix(0 1.25 1.25 0 95.396 -230.6)">
      <g id="g9077">
        <g id="g9079" opacity=".2" clip-path="url(#clipPath9073)">
          <g id="g9081" transform="translate(611.29 491.84)">
            <path id="path9083" d="m0 0c-2.727 0.27-6.805 3.726-8.359 5.964 2.027-0.739 4.204-1.914 6.361-2.684 2.384-0.85 5.021-2.85 7.493-2.988-1.638-1.428-5.268-0.319-7.113 0.193" fill="#f15a24"/>
          </g>
        </g>
      </g>
    </g>
    <g id="g9085" transform="matrix(0 1.25 1.25 0 95.396 -230.6)">
      <g id="g9093">
        <g id="g9095" opacity=".2" clip-path="url(#clipPath9089)">
          <g id="g9097" transform="translate(635.85 502.46)">
            <path id="path9099" d="m0 0c2.715 0 4.914-0.498 4.914-1.113 0-0.616-2.199-1.116-4.914-1.116-2.714 0-4.914 0.5-4.914 1.116 0 0.615 2.2 1.113 4.914 1.113" fill="#fff"/>
          </g>
        </g>
      </g>
    </g>
    <g id="g9101" transform="matrix(0 1.25 1.25 0 95.396 -230.6)">
      <g id="g9109">
        <g id="g9111" opacity=".2" clip-path="url(#clipPath9105)">
          <g id="g9113" transform="translate(636.78 530.88)">
            <path id="path9115" d="m0 0c2.715 0 4.914-0.499 4.914-1.114s-2.199-1.115-4.914-1.115c-2.714 0-4.913 0.5-4.913 1.115s2.199 1.114 4.913 1.114" fill="#fff"/>
          </g>
        </g>
      </g>
    </g>
    <g id="g9117" transform="matrix(0 1.25 1.25 0 95.396 -230.6)">
      <g id="g9125">
        <g id="g9127" opacity=".2" clip-path="url(#clipPath9121)">
          <g id="g9129" transform="translate(667.5 513.66)">
            <path id="path9131" d="m0 0c0.053 0.105 0.241 0.168 0.382 0.332 0.335 0.389 0.302 1.423 0.273 1.912-0.049 0.902-0.578 1.954-1.069 2.67 0.81 0.295 2.268-1.072 2.589-1.756 0.267-0.569 0.25-1.664-0.133-2.178-0.479-0.641-1.545-0.59-2.228-0.793" fill="#f15a24"/>
          </g>
        </g>
      </g>
    </g>
    <g id="g9133" transform="matrix(0 1.25 1.25 0 95.396 -230.6)">
      <g id="g9141">
        <g id="g9143" opacity=".2" clip-path="url(#clipPath9137)">
          <g id="g9145" transform="translate(720.13 499.51)">
            <path id="path9147" d="m0 0s5.813 5.395-0.262 28.874 10.563-26.177 0.262-28.874" fill="#f15a24"/>
          </g>
        </g>
      </g>
    </g>
    <g id="g9149" transform="matrix(0 1.25 1.25 0 95.396 -230.6)">
      <g id="g9157">
        <g id="g9159" opacity=".2" clip-path="url(#clipPath9153)">
          <g id="g9161" transform="translate(750.57 499.66)">
            <path id="path9163" d="m0 0c0.116 0.021 0.222-0.004 0.313-0.074-0.944 0.652-3.521 1.567-2.642 2.965 0.595 0.945 3.121 1.529 4.109 1.429-0.701-0.74-1.631-1.47-1.681-2.633-0.025-0.564 0.961-2.324-0.199-1.806" fill="#f15a24"/>
          </g>
        </g>
      </g>
    </g>
    <g id="g9165" transform="matrix(0 1.25 1.25 0 95.396 -230.6)">
      <g id="g9173">
        <g id="g9175" opacity=".2" clip-path="url(#clipPath9169)">
          <g id="g9177" transform="translate(751.57 505.92)">
            <path id="path9179" d="m0 0c-0.77-0.104-3.145 0.851-3.74 1.539-0.634 0.732-0.473 1.692 0.056 2.438 0.255 0.359 1.274 1.461 1.787 1.062 0.534-0.417-0.167-2.394-0.093-3.092 0.703-0.373 2.038-0.445 1.974-1.685-0.108-0.092-0.455-0.242-0.585-0.258-0.094 0.095-0.163 0.215-0.202 0.357" fill="#f15a24"/>
          </g>
        </g>
      </g>
    </g>
    <g id="g9181" transform="matrix(0 1.25 1.25 0 95.396 -230.6)">
      <g id="g9189">
        <g id="g9191" opacity=".2" clip-path="url(#clipPath9185)">
          <g id="g9193" transform="translate(750.16 512.79)">
            <path id="path9195" d="m0 0c-0.728-0.232-3.034 0.78-3.3 1.92 0.863 0.893 1.794 2.049 2.898 2.514 0.625 0.263 2.129 0.648 2.018-0.453-0.098-0.964-1.82-1.24-1.829-2.176-0.009-0.813 1.273-0.979 1.079-1.908-0.574-0.022-1.246-0.251-1.569 0.463" fill="#f15a24"/>
          </g>
        </g>
      </g>
    </g>
    <g id="g9197" transform="matrix(0 1.25 1.25 0 95.396 -230.6)">
      <g id="g9205">
        <g id="g9207" opacity=".2" clip-path="url(#clipPath9201)">
          <g id="g9209" transform="translate(750.97 519.17)">
            <path id="path9211" d="m0 0c-1.493 0.05-4.78-0.311-5.302 1.896 0.81 0.69 1.175 1.765 2.064 2.464 0.762 0.602 1.585 1.216 2.526 1.161-0.235-1.058-0.864-1.913-1.082-2.966 0.461-0.33 0.925-0.966 1.093-1.592 0.149-0.55 0.146-1.834-0.605-1.084" fill="#f15a24"/>
          </g>
        </g>
      </g>
    </g>
    <g id="g9213" transform="matrix(0 1.25 1.25 0 95.396 -230.6)">
      <g id="g9221">
        <g id="g9223" opacity=".2" clip-path="url(#clipPath9217)">
          <g id="g9225" transform="translate(749.56 528.56)">
            <path id="path9227" d="m0 0c0.064-0.176 0.124-0.283 0.095-0.469-0.756-0.046-2.892 0.694-3.49 1.312-0.411 0.422-0.379 1.033-0.709 1.556 0.73 0.725 1.565 1.031 2.426 1.452 0.632 0.306 1.353 1.131 2.043 0.703-0.4-0.805-1.558-1.639-1.57-2.511-0.015-0.862 1.522-1.713 1.205-2.405" fill="#f15a24"/>
          </g>
        </g>
      </g>
    </g>
    <g id="g9229" transform="matrix(0 1.25 1.25 0 95.396 -230.6)">
      <g id="g9237">
        <g id="g9239" opacity=".2" clip-path="url(#clipPath9233)">
          <g id="g9241" transform="translate(754.42 503.18)">
            <path id="path9243" d="m0 0s50.089 4.85 76.329-6.484-44.212 13.694-76.329 6.484" fill="#f15a24"/>
          </g>
        </g>
      </g>
    </g>
    <g id="g9245" transform="matrix(0 1.25 1.25 0 95.396 -230.6)">
      <g id="g9253">
        <g id="g9255" opacity=".2" clip-path="url(#clipPath9249)">
          <g id="g9257" transform="translate(754.42 512.29)">
            <path id="path9259" d="m0 0s52.785 17.801 79.732 2.266-27.666 21.242-79.732-2.266" fill="#f15a24"/>
          </g>
        </g>
      </g>
    </g>
    <g id="g9261" transform="matrix(0 1.25 1.25 0 95.396 -230.6)">
      <g id="g9269">
        <g id="g9271" opacity=".2" clip-path="url(#clipPath9265)">
          <g id="g9273" transform="translate(755.05 524.76)">
            <path id="path9275" d="m0 0s51.09 23.902 79.167 11.599-29.258 17.899-79.167-11.599" fill="#f15a24"/>
          </g>
        </g>
      </g>
    </g>
    <g id="g9277" transform="matrix(0 1.25 1.25 0 95.396 -230.6)">
      <g id="g9285">
        <g id="g9287" opacity=".2" clip-path="url(#clipPath9281)">
          <g id="g9289" transform="translate(719.04 495.22)">
            <path id="path9291" d="m0 0s11.781 3.961 18.476 2.693-16.136-2.168-18.476-2.693" fill="#f15a24"/>
          </g>
        </g>
      </g>
    </g>
    <g id="g9293" transform="matrix(0 1.25 1.25 0 749.78 621.6)">
      <path id="path9295" d="m0 0s4.917-8.734 13.145-13.736-1.979 17.907-14.14 32.751 8.181-18.421 0.995-19.015" fill="#f15a24"/>
    </g>
    <g id="g9297" transform="matrix(0 1.25 1.25 0 734.65 563.08)">
      <path id="path9299" d="m0 0c6.293 0 11.395-6.175 11.395-13.792s-5.102-13.793-11.395-13.793c-6.292 0-11.394 6.176-11.394 13.793s5.102 13.792 11.394 13.792z" stroke="#f7931e" fill="none"/>
    </g>
    <g id="g9301" transform="matrix(0 1.25 1.25 0 95.396 -230.6)">
      <g id="g9309">
        <g id="g9311" opacity=".3" clip-path="url(#clipPath9305)">
          <g id="g9313" transform="translate(634.95 511.4)">
            <path id="path9315" d="m0 0c6.293 0 11.395-6.175 11.395-13.792s-5.102-13.793-11.395-13.793c-6.292 0-11.394 6.176-11.394 13.793s5.102 13.792 11.394 13.792" fill="#fff"/>
          </g>
        </g>
      </g>
    </g>
    <g id="g9317" transform="matrix(0 1.25 1.25 0 95.396 -230.6)">
      <g id="g9325">
        <g id="g9327" opacity=".3" clip-path="url(#clipPath9321)">
          <g id="g9329" transform="translate(636.75 549.18)">
            <path id="path9331" d="m0 0c6.293 0 11.396-6.176 11.396-13.793 0-7.616-5.103-13.792-11.396-13.792-6.291 0-11.394 6.176-11.394 13.792 0 7.617 5.103 13.793 11.394 13.793" fill="#fff"/>
          </g>
        </g>
      </g>
    </g>
    <g id="g9333" transform="matrix(0 1.25 1.25 0 781.98 565.43)">
      <path id="path9335" d="m0 0c6.293 0 11.396-6.177 11.396-13.793s-5.103-13.794-11.396-13.794c-6.291 0-11.394 6.178-11.394 13.794s5.103 13.793 11.394 13.793z" stroke="#f7931e" fill="none"/>
    </g>
    <g id="g9337" transform="matrix(0 1.25 1.25 0 734.65 563.08)">
      <path id="path9339" d="m0 0s-4.691 4.832 0.822 10.343" stroke="#f7931e" fill="none"/>
    </g>
    <g id="g9341" transform="matrix(0 1.25 1.25 0 95.396 -230.6)">
      <g id="g9349">
        <g id="g9351" opacity=".2" clip-path="url(#clipPath9345)">
          <g id="g9353" transform="translate(728.16 562.33)">
            <path id="path9355" d="m0 0c-1.722-4.017 0.396-10.057 0.813-11.171 1.021-0.196 2.072-0.464 3.126-0.816-1.767 4.824-1.175 9.503-0.683 11.804-0.908 0.126-1.854 0.236-2.841 0.33l-0.415-0.147z"/>
          </g>
        </g>
      </g>
    </g>
    <g id="g9357" transform="matrix(0 1.25 1.25 0 95.396 -230.6)">
      <g id="g9365">
        <g id="g9367" opacity=".2" clip-path="url(#clipPath9361)">
          <g id="g9369" transform="translate(712.27 543.61)">
            <path id="path9371" d="m0 0c-0.229-0.099 3.784 2.412 10.488 1.535 0 0 0.6-0.813 1.598-1.812 0 0-8.748 1.713-12.086 0.277" fill="#f15a24"/>
          </g>
        </g>
      </g>
    </g>
    <g id="g9373" transform="matrix(0 1.25 1.25 0 715.61 672.98)">
      <path id="path9375" d="m0 0c-0.39-1.273 1.938-4.107 2.862-5.516 1.279-1.956 2.107-3.814 3.336-5.767 3.69-5.859 5.101-12.807 8.193-18.977 2.684-5.357 5.819-12.625 3.216-18.706-1.279-2.991-4.091-4.631-2.979-8.323 1.813 1.201 3.245 2.941 5.294 3.735 1.89 0.732 1.507-4.841 1.379-5.412-0.301-1.347-1.928-4.972-0.015-5.7 1.643-0.625 4.744 3.318 5.631 4.391 1.939 2.345 3.47 5.462 2.81 8.646-0.647 3.121-3.087 5.43-3.785 8.55-0.841 3.756-0.861 7.657-1.237 11.481-0.945 9.635-2.309 18.136-7.052 26.556-1.769 3.147-2.823 6.351-4.441 9.503-1.658 3.237-4.131 2.918-7.392 0.971-2.605-1.556-5.472-2.907-5.82-5.432" fill="#f9dec5"/>
    </g>
    <g id="g9377" transform="matrix(0 1.25 1.25 0 714.42 668.2)">
      <path id="path9379" d="m0 0s1.709-0.174 8.459-10.402 4.296 6.34 11.661 10.023 0.871 1.689-8.463 9.742c0 0-9.069-4.482-11.657-9.363" fill="#fbb03b"/>
    </g>
    <g id="g9381" transform="matrix(0 1.25 1.25 0 95.396 -230.6)">
      <g id="g9389">
        <g id="g9391" opacity=".2" clip-path="url(#clipPath9385)">
          <g id="g9393" transform="translate(729.93 483.57)">
            <path id="path9395" d="m0 0c1.792 4.061 7.504 7.027 10.272 8.424-0.409 0.799-0.797 1.599-1.154 2.401l-0.014 0.007c-5.111-1.269-10.342-8.58-10.383-8.638 0.215-0.372 0.426-0.742 0.664-1.119 0.221-0.35 0.409-0.718 0.615-1.075"/>
          </g>
        </g>
      </g>
    </g>
  </g>
  <metadata>
    <rdf:RDF>
      <cc:Work>
        <dc:format>image/svg+xml</dc:format>
        <dc:type rdf:resource="http://purl.org/dc/dcmitype/StillImage"/>
        <cc:license rdf:resource="http://creativecommons.org/licenses/publicdomain/"/>
        <dc:publisher>
          <cc:Agent rdf:about="http://openclipart.org/">
            <dc:title>Openclipart</dc:title>
          </cc:Agent>
        </dc:publisher>
        <dc:title>Teacher</dc:title>
        <dc:date>2010-12-03T01:17:27</dc:date>
        <dc:description>Teacher</dc:description>
        <dc:source>http://openclipart.org/detail/99193/teacher-by-dcatcherex</dc:source>
        <dc:creator>
          <cc:Agent>
            <dc:title>dcatcherex</dc:title>
          </cc:Agent>
        </dc:creator>
        <dc:subject>
          <rdf:Bag>
            <rdf:li>anime</rdf:li>
            <rdf:li>cartoon</rdf:li>
            <rdf:li>character</rdf:li>
            <rdf:li>clip art</rdf:li>
            <rdf:li>clipart</rdf:li>
            <rdf:li>comic</rdf:li>
            <rdf:li>girl</rdf:li>
            <rdf:li>people</rdf:li>
            <rdf:li>person</rdf:li>
            <rdf:li>teacher</rdf:li>
            <rdf:li>woman</rdf:li>
          </rdf:Bag>
        </dc:subject>
      </cc:Work>
      <cc:License rdf:about="http://creativecommons.org/licenses/publicdomain/">
        <cc:permits rdf:resource="http://creativecommons.org/ns#Reproduction"/>
        <cc:permits rdf:resource="http://creativecommons.org/ns#Distribution"/>
        <cc:permits rdf:resource="http://creativecommons.org/ns#DerivativeWorks"/>
      </cc:License>
    </rdf:RDF>
  </metadata>
</svg>
