<?xml version="1.0" encoding="utf-8"?>
<!-- Generator: Adobe Illustrator 25.2.1, SVG Export Plug-In . SVG Version: 6.00 Build 0)  -->
<svg version="1.1" id="CRM_x5F_Workflow_Automation"
	 xmlns="http://www.w3.org/2000/svg" xmlns:xlink="http://www.w3.org/1999/xlink" x="0px" y="0px" viewBox="0 0 130 130"
	 style="enable-background:new 0 0 130 130;" xml:space="preserve">
<style type="text/css">
	.st0{fill:none;}
	.st1{fill:url(#SVGID_1_);}
</style>
<rect class="st0" width="130" height="130"/>
<linearGradient id="SVGID_1_" gradientUnits="userSpaceOnUse" x1="16.3902" y1="39.9198" x2="98.1199" y2="97.1475">
	<stop  offset="0" style="stop-color:#FF5621"/>
	<stop  offset="1" style="stop-color:#FFBA00"/>
</linearGradient>
<path class="st1" d="M71.1,41.4L67,41.3c-0.5-2.2-1.4-4.3-2.6-6.2l2.8-3c0.7-0.8,0.7-2-0.1-2.8L64.9,27l-2.2-2.2
	c-0.4-0.4-0.9-0.6-1.4-0.6s-1,0.2-1.4,0.5l-3,2.8c-1.9-1.2-4-2-6.2-2.6l-0.1-4.1c0-0.9-0.9-1.8-2-1.8h-6.1c-1.1,0-2,0.9-2,1.9
	L40.2,25c-2.2,0.5-4.3,1.4-6.2,2.6l-3-2.8c-0.4-0.4-0.9-0.5-1.4-0.5s-1,0.2-1.4,0.6L26.1,27l-2.2,2.2c-0.8,0.8-0.8,2-0.1,2.8l2.8,3
	c-1.2,1.9-2,4-2.6,6.2l-4.1,0.1c-1.1,0-1.9,0.9-1.9,2v6.1c0,1.1,0.9,2,1.9,2l4.2,0.2c0.5,2.2,1.4,4.3,2.6,6.2l-2.8,3
	c-0.7,0.8-0.7,2,0.1,2.8l2.1,2.1l2.2,2.2c0.4,0.4,0.9,0.6,1.4,0.6s1-0.2,1.4-0.5l3-2.8c1.9,1.2,4,2,6.2,2.6l0.1,4.1
	c0,1.1,0.9,1.9,2,1.9h6.1c1.1,0,2-0.9,2-1.9l0.1-4.1c2.2-0.5,4.3-1.4,6.2-2.6l3,2.8c0.4,0.4,0.9,0.5,1.4,0.5s1-0.2,1.4-0.6l2.2-2.2
	l2.2-2.2c0.8-0.8,0.8-2,0.1-2.8l-2.8-3c1.2-1.9,2-4,2.6-6.2l4.1-0.1c1.1,0,1.9-0.9,1.9-2v-6.1C73,42.3,72.1,41.4,71.1,41.4z
	 M71,49.5l-4.1,0.1l-1.5,0.1L65,51.2c-0.5,2-1.3,3.9-2.3,5.6l-0.8,1.3l1,1.1l2.8,3l-2.2,2.2l-2.2,2.2l-3-2.8l-1.1-1l-1.3,0.8
	c-1.8,1.1-3.6,1.8-5.6,2.3l-1.5,0.4l-0.1,1.5L48.6,72h-6.1l-0.1-4.1l-0.1-1.5L40.7,66c-2-0.5-3.9-1.3-5.6-2.3l-1.3-0.8l-1.1,1
	l-3,2.8l-2.2-2.2l-2.2-2.2l2.8-3l1-1.1l-0.8-1.3c-1.1-1.8-1.8-3.6-2.3-5.6l-0.4-1.5l-1.5-0.1l-4-0.1v-6.1l4.1-0.1l1.5-0.1l0.4-1.5
	c0.5-2,1.3-3.9,2.3-5.6l0.8-1.3l-1-1.1l-2.8-3l2.2-2.2l2.2-2.2l3,2.8l1.1,1l1.3-0.8c1.8-1.1,3.6-1.8,5.6-2.3l1.5-0.4l0.1-1.5v-4h6.1
	l0.1,4.1l0.1,1.5l1.5,0.4c2,0.5,3.9,1.3,5.6,2.3l1.3,0.7l1.1-1l3-2.8l2.2,2.2l2.2,2.2l-2.8,3l-1,1.1l0.8,1.3
	c1.1,1.8,1.8,3.6,2.3,5.6l0.4,1.5l1.5,0.1l4.1,0.1V49.5z M45.6,34.5c-6.6,0-12,5.4-12,12s5.3,12,12,12c6.6,0,12-5.4,12-12
	S52.2,34.5,45.6,34.5z M45.6,56.5c-5.5,0-10-4.5-10-10s4.5-10,10-10s10,4.5,10,10S51.1,56.5,45.6,56.5z M71.3,90.9l-2.5-0.1
	c-0.3-1.4-0.9-2.7-1.6-3.9l1.7-1.8c0.5-0.5,0.4-1.3,0-1.7L67.6,82l-1.4-1.4c-0.2-0.2-0.6-0.4-0.9-0.4c-0.3,0-0.6,0.1-0.8,0.3
	l-1.8,1.7c-1.2-0.7-2.5-1.3-3.9-1.6l-0.1-2.5c0-0.6-0.6-1.1-1.2-1.1h-3.8c-0.7,0-1.2,0.5-1.2,1.2l-0.1,2.5c-1.4,0.3-2.7,0.9-3.9,1.6
	l-1.8-1.7c-0.2-0.2-0.5-0.3-0.8-0.3s-0.6,0.1-0.9,0.4L43.4,82l-1.3,1.3c-0.5,0.5-0.5,1.2,0,1.7l1.7,1.8c-0.7,1.2-1.3,2.5-1.6,3.9
	l-2.5,0.1c-0.7,0-1.2,0.6-1.2,1.2v3.8c0,0.7,0.5,1.2,1.2,1.2l2.5,0.1c0.3,1.4,0.9,2.7,1.6,3.9l-1.7,1.9c-0.5,0.5-0.4,1.3,0,1.7
	l2.6,2.6c0.2,0.2,0.6,0.4,0.9,0.4c0.3,0,0.6-0.1,0.8-0.3l1.8-1.7c1.2,0.7,2.5,1.3,3.9,1.6l0.1,2.5c0,0.7,0.6,1.2,1.2,1.2h3.8
	c0.7,0,1.2-0.5,1.2-1.2l0.1-2.5c1.4-0.3,2.7-0.9,3.9-1.6l1.8,1.7c0.2,0.2,0.5,0.3,0.8,0.3c0.3,0,0.6-0.1,0.9-0.4l2.6-2.6
	c0.5-0.5,0.5-1.2,0-1.7l-1.4-1.8c0.7-1.2,1.3-2.5,1.6-3.9l2.5-0.1c0.7,0,1.2-0.6,1.2-1.2v-3.8C72.5,91.4,72,90.9,71.3,90.9z
	 M70.7,95.5l-1.8,0.1l-1.5,0.1L67,97.2c-0.3,1.2-0.7,2.3-1.4,3.3l-0.8,1.3l1,1.1l1.2,1.3l-0.8,0.5l-0.8,0.8l-1.3-1.2l-1.1-1
	l-1.4,0.8c-1,0.6-2.1,1.1-3.3,1.4l-1.5,0.4l-0.1,1.5v1.7h-2.4l-0.1-1.8l-0.1-1.5l-1.5-0.4c-1.2-0.3-2.3-0.7-3.3-1.4l-1.1-0.7l-1.1,1
	l-1.3,1.2l-1.6-1.6l1.2-1.3l1-1.1l-0.8-1.3c-0.6-1-1.1-2.1-1.4-3.3l-0.4-1.5l-1.5-0.1l-1.8-0.1v-2.4l1.8-0.1l1.5-0.1l0.4-1.5
	c0.3-1.2,0.7-2.3,1.4-3.3l0.8-1.3l-1-1.1L44.1,84l1.6-1.6l1.3,1.2l1.1,1l1.3-0.8c1-0.6,2.1-1.1,3.3-1.4l1.5-0.4l0.1-1.5l0.1-1.8h2.2
	V79l0.1,1.8l0.1,1.5l1.5,0.4c1.2,0.3,2.3,0.7,3.3,1.4l1.3,0.8l1.1-1l1.3-1.2l1.6,1.6l-1.2,1.3l-1,1.1l0.8,1.3c0.6,1,1.1,2.1,1.4,3.3
	l0.4,1.5l1.5,0.1l1.8,0.1V95.5z M55.6,85.8c-4.5,0-8.2,3.7-8.2,8.2c0,4.5,3.6,8.2,8.2,8.2c4.5,0,8.2-3.7,8.2-8.2
	C63.8,89.5,60.1,85.8,55.6,85.8z M55.6,100.3c-3.4,0-6.2-2.8-6.2-6.2c0-3.4,2.8-6.2,6.2-6.2s6.2,2.8,6.2,6.2
	C61.8,97.5,59,100.3,55.6,100.3z M111.8,69.2l-0.2-2.4c-0.1-0.8-0.7-1.4-1.5-1.4c0,0,0,0-0.1,0l-2.9,0c-0.5-1.6-1.3-3.2-2.3-4.6
	l2-2.4c0.5-0.6,0.4-1.6-0.2-2.1l-3.6-3c-0.3-0.3-0.6-0.4-1-0.4s-0.8,0.2-1.1,0.5l-2.1,2.3c-1.5-0.8-3.2-1.3-4.9-1.6L93.6,51
	c-0.2-1-0.8-1.6-1.6-1.6h-0.1l-2.4,0.2l-2.4,0.2c-0.8,0.1-1.5,0.8-1.4,1.6l0.1,3.1c-1.6,0.5-3.2,1.3-4.6,2.3l-2.4-2
	c-0.3-0.2-0.6-0.3-1-0.3c-0.4,0-0.9,0.2-1.2,0.5l-3,3.6c-0.5,0.6-0.5,1.6,0.1,2.1l2.3,2.1c-0.8,1.5-1.3,3.2-1.6,4.9L71.2,68
	c-0.8,0.1-1.4,0.8-1.4,1.6l0.4,4.8c0.1,0.8,0.7,1.4,1.5,1.4c0,0,0,0,0.1,0l3.1-0.1c0.5,1.6,1.3,3.2,2.3,4.6l-2,2.4
	c-0.5,0.6-0.4,1.6,0.2,2.1l3.6,3c0.3,0.3,0.6,0.4,1,0.4s0.8-0.2,1.1-0.5l2.1-2.3c1.5,0.8,3.2,1.3,4.9,1.6l0.3,3.1
	c0.1,0.8,0.7,1.4,1.5,1.4H90l2.4-0.2l2.4-0.2c0.8-0.1,1.5-0.8,1.4-1.6l-0.1-2.8c1.6-0.5,3.2-1.3,4.6-2.3l2.4,2
	c0.3,0.2,0.6,0.3,1,0.3c0.4,0,0.9-0.2,1.2-0.5l1.5-1.8l1.5-1.8c0.5-0.6,0.5-1.6-0.1-2.1l-2.3-2.1c0.8-1.5,1.3-3.2,1.6-4.9l3.1-0.3
	c0.8-0.1,1.4-0.8,1.4-1.6L111.8,69.2z M107.3,71.4l-1.5,0.2l-0.3,1.5c-0.3,1.5-0.7,3-1.4,4.3l-0.7,1.3l1.1,1l1.9,1.8l-1.1,1.5
	l-1.2,1.5l-2.1-1.7l-1.2-1l-1.2,0.9c-1.2,0.9-2.6,1.6-4.1,2l-1.4,0.5l0.1,1.5l0.1,2.7l-1.9,0.1l-1.9,0.1L90.1,87l-0.2-1.5l-1.5-0.3
	c-1.5-0.3-3-0.7-4.3-1.4l-1.3-0.7l-1,1.1L80,86.1l-1.4-1.3l-1.5-1.1l1.7-2.1l1-1.2l-0.9-1.2c-0.9-1.2-1.6-2.6-2-4.1l-0.5-1.4
	l-1.5,0.1l-2.7,0.1L72.1,72l-0.2-2l2.7-0.3l1.5-0.2l0.3-1.5c0.3-1.5,0.7-3,1.4-4.3l0.7-1.3l-1.1-1l-1.9-1.8l1.3-1.4l1.3-1.4l2.1,1.7
	l1.2,1l1.2-0.9c1.2-0.9,2.6-1.6,4.1-2l1.4-0.5L88,54.6l-0.1-2.7l1.9-0.1l1.8-0.3l0.3,2.7l0.2,1.5l1.5,0.3c1.5,0.3,3,0.7,4.3,1.4
	l1.3,0.7l1-1.1l1.8-1.9l1.4,1.3l1.4,1.3l-1.7,2.1l-1,1.2l1,1c0.9,1.2,1.6,2.6,2,4.1l0.5,1.4l1.5-0.1l2.7-0.1l0.1,1.9l0.1,1.9
	L107.3,71.4z M100.7,69.9c-0.4-5-4.6-9-9.6-9h-0.7c-2.6,0.2-4.9,1.4-6.6,3.3c-1.7,2-2.5,4.4-2.3,7c0.2,5.1,4.4,9,9.5,9h0.7
	c2.6-0.2,4.9-1.4,6.6-3.3C100,74.9,100.8,72.5,100.7,69.9z M91.6,78.2H91c-4,0-7.4-3.1-7.6-7.1c-0.3-4.2,2.9-7.9,7.1-8.2H91
	c4,0,7.4,3.1,7.7,7.1C99,74.2,95.8,77.9,91.6,78.2z"/>
</svg>
